<svg xmlns="http://www.w3.org/2000/svg" width="46.579" height="39.451" viewBox="0 0 46.579 39.451">
  <g id="XMLID_1691_" transform="translate(0 -39.175)">
    <g id="XMLID_61_" transform="translate(0 39.175)">
      <path id="XMLID_96_" d="M46.486,72.948,37.979,41.2a2.729,2.729,0,0,0-3.343-1.93L26.4,41.477a2.725,2.725,0,0,0-.58.23A2.731,2.731,0,0,0,23.429,40.3H14.9a2.718,2.718,0,0,0-1.819.7,2.718,2.718,0,0,0-1.819-.7H2.729A2.732,2.732,0,0,0,0,43.028V75.9a2.732,2.732,0,0,0,2.729,2.729h8.53a2.718,2.718,0,0,0,1.819-.7,2.718,2.718,0,0,0,1.819.7h8.53A2.732,2.732,0,0,0,26.158,75.9V66.3a.91.91,0,0,0-1.819,0v9.6a.911.911,0,0,1-.91.91H14.9a.911.911,0,0,1-.91-.91V43.028a.911.911,0,0,1,.91-.91h8.53a.911.911,0,0,1,.91.91V58.912a.91.91,0,0,0,1.819,0V51.133l6.815,25.435a2.728,2.728,0,0,0,3.343,1.93l8.24-2.208A2.732,2.732,0,0,0,46.486,72.948ZM11.26,76.807H2.729a.911.911,0,0,1-.91-.91V43.028a.911.911,0,0,1,.91-.91h8.53a.911.911,0,0,1,.91.91V75.9A.911.911,0,0,1,11.26,76.807Zm33.378-2.7a.9.9,0,0,1-.552.424l-8.24,2.208a.911.911,0,0,1-1.114-.643L26.224,44.349a.911.911,0,0,1,.643-1.114l8.24-2.208a.9.9,0,0,1,.69.091.9.9,0,0,1,.424.552l8.507,31.749A.9.9,0,0,1,44.638,74.109Z" transform="translate(0 -39.175)" fill="#1877f2"/>
      <path id="XMLID_103_" d="M41.1,327.217a3.581,3.581,0,1,0,3.581,3.581A3.585,3.585,0,0,0,41.1,327.217Zm0,5.343a1.762,1.762,0,1,1,1.762-1.762A1.764,1.764,0,0,1,41.1,332.56Z" transform="translate(-34.107 -301.013)" fill="#1877f2"/>
      <path id="XMLID_104_" d="M41.677,227.2h4.752a.91.91,0,0,0,0-1.82H41.677a.91.91,0,0,0,0,1.82Z" transform="translate(-37.058 -208.441)" fill="#1877f2"/>
      <path id="XMLID_105_" d="M41.677,188.049h4.752a.91.91,0,1,0,0-1.819H41.677a.91.91,0,1,0,0,1.819Z" transform="translate(-37.058 -172.852)" fill="#1877f2"/>
      <path id="XMLID_1176_" d="M41.677,148.9h4.752a.91.91,0,0,0,0-1.82H41.677a.91.91,0,0,0,0,1.82Z" transform="translate(-37.058 -137.262)" fill="#1877f2"/>
      <path id="XMLID_1180_" d="M41.677,109.746h4.752a.91.91,0,1,0,0-1.819H41.677a.91.91,0,1,0,0,1.819Z" transform="translate(-37.058 -101.672)" fill="#1877f2"/>
      <path id="XMLID_1189_" d="M174.972,334.379a3.581,3.581,0,1,0-3.581-3.581A3.585,3.585,0,0,0,174.972,334.379Zm0-5.343a1.762,1.762,0,1,1-1.762,1.762A1.764,1.764,0,0,1,174.972,329.036Z" transform="translate(-155.799 -301.013)" fill="#1877f2"/>
      <path id="XMLID_1190_" d="M174.918,227.2h4.866a.91.91,0,1,0,0-1.82h-4.866a.91.91,0,0,0,0,1.82Z" transform="translate(-158.178 -208.441)" fill="#1877f2"/>
      <path id="XMLID_1191_" d="M174.918,188.049h4.866a.91.91,0,1,0,0-1.819h-4.866a.91.91,0,1,0,0,1.819Z" transform="translate(-158.178 -172.852)" fill="#1877f2"/>
      <path id="XMLID_1231_" d="M174.918,148.9h4.866a.91.91,0,1,0,0-1.82h-4.866a.91.91,0,0,0,0,1.82Z" transform="translate(-158.178 -137.262)" fill="#1877f2"/>
      <path id="XMLID_1232_" d="M174.918,109.746h4.866a.91.91,0,1,0,0-1.819h-4.866a.91.91,0,0,0,0,1.819Z" transform="translate(-158.178 -101.672)" fill="#1877f2"/>
      <path id="XMLID_1402_" d="M380.465,317.364a3.581,3.581,0,1,0,4.386,2.532A3.585,3.585,0,0,0,380.465,317.364Zm1.383,5.161a1.762,1.762,0,1,1,1.246-2.157A1.763,1.763,0,0,1,381.848,322.525Z" transform="translate(-343.439 -291.945)" fill="#1877f2"/>
      <path id="XMLID_1427_" d="M353.816,213.612a.91.91,0,0,0-1.114-.643l-4.713,1.263a.91.91,0,1,0,.471,1.758l4.714-1.263A.91.91,0,0,0,353.816,213.612Z" transform="translate(-315.717 -197.129)" fill="#1877f2"/>
      <path id="XMLID_1561_" d="M343.039,176.907a.91.91,0,0,0-.471-1.758l-4.713,1.263a.91.91,0,1,0,.471,1.758Z" transform="translate(-306.506 -162.751)" fill="#1877f2"/>
      <path id="XMLID_2019_" d="M332.906,139.09a.91.91,0,0,0-.471-1.758l-4.714,1.263a.91.91,0,1,0,.471,1.758Z" transform="translate(-297.294 -128.374)" fill="#1877f2"/>
      <path id="XMLID_2022_" d="M322.773,101.273a.91.91,0,1,0-.471-1.758l-4.714,1.263a.91.91,0,1,0,.471,1.758Z" transform="translate(-288.083 -93.998)" fill="#1877f2"/>
      <path id="XMLID_2204_" d="M268.44,287.315a.91.91,0,1,0,.643.267A.916.916,0,0,0,268.44,287.315Z" transform="translate(-243.192 -264.741)" fill="#1877f2"/>
    </g>
  </g>
</svg>
