<svg xmlns="http://www.w3.org/2000/svg" width="161.303" height="78.107" viewBox="0 0 161.303 78.107">
  <g id="Group_2414" data-name="Group 2414" transform="translate(-117.553 -196.848)">
    <g id="Group_2414-2" data-name="Group 2414" transform="translate(193.913 207.993)">
      <path id="Path_55882" data-name="Path 55882" d="M411.077,239.687c-.352-.045,10.73,2.466,19.241,4.878,24.781,7.021,57.726,24.342,56.552,39.985-.379,5.047-4.265,9.429-5.214,10.429-3.439,3.62-7.677,5.342-16.117,7.111a141.731,141.731,0,0,1-27.077,2.963c1.751.165,4.407.381,7.64.5,16.273.608,32.889,1.229,43.011-8.678,2.379-2.329,6.618-6.613,6.886-12.562.89-19.746-43.249-35.919-55.383-39.04-7.949-2.044-17-3.667-17-3.667C418.712,240.727,414.45,240.116,411.077,239.687Z" transform="translate(-411.068 -239.687)" fill="#ff7f00"/>
    </g>
    <g id="Group_2415" data-name="Group 2415" transform="translate(182.395 196.848)">
      <path id="Path_55883" data-name="Path 55883" d="M379.244,208.342l.662,11.361-.627-.191-3.129-12.45s-5.836-2.143-7.188-2.867c-.491-.317-2.5-1.581-2.122-2.72l0-.012.005-.012c.509-1.086,2.835-.631,3.409-.526,1.481.4,7.2,2.841,7.2,2.841l10.814-6.918.587.291-8.271,7.816s2.783,1.363,4.19,2.114,4.6,2.653,4.6,2.653l3.58-1.822.085.246-2.561,2.694-.13,3.261-.23.12L388.91,210.9s-3.626-.8-5.166-1.221S379.244,208.342,379.244,208.342Z" transform="translate(-366.794 -196.848)" fill="#ff7f00"/>
    </g>
    <g id="Group_2420" data-name="Group 2420" transform="translate(117.553 210.132)">
      <g id="Group_2418" data-name="Group 2418" transform="translate(37.839 25.273)">
        <g id="Group_2416" data-name="Group 2416">
          <path id="Path_55884" data-name="Path 55884" d="M278.5,368.066a2.141,2.141,0,0,1-1.484-.624,25.257,25.257,0,0,0-9.98-5.854q.165,4.323.165,4.8a1.931,1.931,0,0,1-.6,1.434,2.207,2.207,0,0,1-3,0,1.929,1.929,0,0,1-.6-1.434q0-1.115.03-3.336t.03-3.335l.03-11.99a2.874,2.874,0,0,1,.585-1.753,2.264,2.264,0,0,1,2.113-.906q3.641.268,3.732.282a10.742,10.742,0,0,1,3.567,1q6.4,3.195,6.4,7.919a4.993,4.993,0,0,1-1.341,3.439,10.213,10.213,0,0,1-4.024,2.519,22.3,22.3,0,0,1,5.979,4.487,1.95,1.95,0,0,1,.525,1.322,1.916,1.916,0,0,1-.629,1.434A2.1,2.1,0,0,1,278.5,368.066Zm-9.606-18.69q-.12-.014-1.753-.119v7.889q.374.015.659.015a12.45,12.45,0,0,0,5.44-.906,5.426,5.426,0,0,0,1.4-1.025q.637-.638.637-.966,0-1.664-2.128-3.209A8.7,8.7,0,0,0,268.89,349.375Z" transform="translate(-263 -345.057)" fill="#ff7f00"/>
          <path id="Path_55885" data-name="Path 55885" d="M350.068,389.52a4.354,4.354,0,0,1-2.188-1.322,19.758,19.758,0,0,1-2.428.988,6.037,6.037,0,0,1-1.783.335,7.1,7.1,0,0,1-5.418-1.917q-1.806-1.917-1.806-5.735a8.173,8.173,0,0,1,2.668-6.129,8.916,8.916,0,0,1,6.384-2.548,8.64,8.64,0,0,1,3.3.795q2.263.956,2.263,2.221a1.372,1.372,0,0,1-.344.927,9.71,9.71,0,0,0-.233,1.478q-.082.891-.082,2.082a14.327,14.327,0,0,0,.4,4.045q.045.133.689,1.53a7.734,7.734,0,0,1,.584,1.441,1.627,1.627,0,0,1-.607,1.3A2.1,2.1,0,0,1,350.068,389.52Zm-3.717-10.029a10.236,10.236,0,0,1,.068-1.092q.067-.616.2-1.374a3.232,3.232,0,0,0-.532-.215,1.457,1.457,0,0,0-.4-.067,4.808,4.808,0,0,0-3.567,1.583,5.682,5.682,0,0,0-.809,6.656,2.484,2.484,0,0,0,2.158,1,5.078,5.078,0,0,0,1.761-.3,5.459,5.459,0,0,0,1.566-.9A46.043,46.043,0,0,1,346.351,379.491Z" transform="translate(-317.338 -365.872)" fill="#ff7f00"/>
          <path id="Path_55886" data-name="Path 55886" d="M407.762,372.766q2.263-2.6,4.286-2.6a3.7,3.7,0,0,1,3.387,1.738,6.286,6.286,0,0,1,2.023-1.2,7,7,0,0,1,2.4-.4,3.946,3.946,0,0,1,3.986,2.9,32.3,32.3,0,0,1,.644,4.026q.419,2.407,1.079,8.023a1.6,1.6,0,0,1-.585,1.4,2.262,2.262,0,0,1-1.514.55,1.85,1.85,0,0,1-2.023-1.694q-.269-1.53-.554-4.324-.3-3.06-.495-4.338-.4-2.659-1.034-2.659a4.866,4.866,0,0,0-1.573.683,11.374,11.374,0,0,0-1.8,1.174,41.66,41.66,0,0,0,.4,4.873,41.858,41.858,0,0,1,.42,4.873,1.882,1.882,0,0,1-.584,1.411,2.232,2.232,0,0,1-2.967,0,1.882,1.882,0,0,1-.585-1.411,48.96,48.96,0,0,0-.367-4.984,48.9,48.9,0,0,1-.367-4.985,5.6,5.6,0,0,0-.165-1.515,12.217,12.217,0,0,0-3.492,3.313q-.075.1-.255.312-.06,3-.06,4.71,0,.416-.03,1.121t-.03,1.048a1.459,1.459,0,0,1-.659,1.263,2.477,2.477,0,0,1-1.484.431,1.7,1.7,0,0,1-1.723-1.1,6.5,6.5,0,0,1-.314-2.362v-5.527q0-.743-.06-2.176t-.06-2.177a5.784,5.784,0,0,1,.48-2.392q.585-1.337,1.649-1.337a2.084,2.084,0,0,1,1.5.646,1.955,1.955,0,0,1,.659,1.419A5.726,5.726,0,0,0,407.762,372.766Z" transform="translate(-367.03 -363.084)" fill="#ff7f00"/>
          <path id="Path_55887" data-name="Path 55887" d="M502.565,362.553q0,.847.053,2.719t.052,2.719a1.874,1.874,0,0,1-.584,1.418,2.253,2.253,0,0,1-2.967,0,1.872,1.872,0,0,1-.585-1.418q0-.847-.052-2.719t-.053-2.719q0-1.322.15-3.313t.15-3.313a1.874,1.874,0,0,1,.584-1.419,2.254,2.254,0,0,1,2.967,0,1.874,1.874,0,0,1,.585,1.419q0,1.323-.15,3.313T502.565,362.553Zm-1.274-10.89a2.393,2.393,0,0,1-1.664-.639,2.079,2.079,0,0,1,0-3.12,2.4,2.4,0,0,1,1.664-.639,2.37,2.37,0,0,1,1.656.639,2.094,2.094,0,0,1,0,3.12A2.366,2.366,0,0,1,501.292,351.663Z" transform="translate(-437.181 -346.691)" fill="#ff7f00"/>
        </g>
        <g id="Group_2417" data-name="Group 2417" transform="translate(4.466 24.57)">
          <path id="Path_55888" data-name="Path 55888" d="M282.514,443.167c-.042,0-.092,0-.148,0s-.107,0-.149,0a1.99,1.99,0,0,0-.285.024q.054,1.2.054,1.569c0,.025,0,.074,0,.144s0,.128,0,.171q0,.684-.434.683a.429.429,0,0,1-.285-.1.331.331,0,0,1-.132-.267q0-.107.009-.321t.009-.321q0-.359-.054-1.539c-.124-.006-.311-.023-.562-.049s-.376-.155-.376-.385a.387.387,0,0,1,.114-.282.394.394,0,0,1,.294-.116q.111,0,.509.036c0-.063-.007-.168-.015-.315q-.012-.19-.012-.294a.354.354,0,0,1,.123-.276.431.431,0,0,1,.3-.11q.444,0,.444.74l-.006.243a2.238,2.238,0,0,1,.3-.027,1.644,1.644,0,0,1,.471.045.345.345,0,0,1,.24.362.375.375,0,0,1-.117.282A.409.409,0,0,1,282.514,443.167Z" transform="translate(-280.167 -440.912)" fill="#ff7f00"/>
          <path id="Path_55889" data-name="Path 55889" d="M292.9,448.777a1.338,1.338,0,0,1-.953-.377,1.51,1.51,0,0,1-.459-1.1,1.8,1.8,0,0,1,.363-1.171,1.5,1.5,0,0,1,1.268-.606,1.127,1.127,0,0,1,.953.475,1.731,1.731,0,0,1,.318,1.061,1.884,1.884,0,0,1-.372,1.177A1.336,1.336,0,0,1,292.9,448.777Zm.18-2.472a.651.651,0,0,0-.582.333,1.2,1.2,0,0,0-.18.66.712.712,0,0,0,.2.547.535.535,0,0,0,.378.152.647.647,0,0,0,.452-.175.772.772,0,0,0,.234-.556Q293.626,446.308,293.08,446.3Z" transform="translate(-288.543 -443.954)" fill="#ff7f00"/>
          <path id="Path_55890" data-name="Path 55890" d="M306.786,446.689q0,.2,0,.6c0,.267,0,.468,0,.6,0,.041,0,.1.01.185s.011.144.011.186a.354.354,0,0,1-.121.275.433.433,0,0,1-.3.108.38.38,0,0,1-.363-.223,2.3,2.3,0,0,1-.794.14,1.351,1.351,0,0,1-.716-.177.823.823,0,0,1-.39-.594,8.572,8.572,0,0,1-.117-1.321,4.945,4.945,0,0,1,.09-.878.368.368,0,0,1,.4-.334.435.435,0,0,1,.3.107.348.348,0,0,1,.123.273,2.97,2.97,0,0,1-.044.408,2.965,2.965,0,0,0-.043.422q0,.415.029.727a2.911,2.911,0,0,0,.085.515.977.977,0,0,0,.145.05.55.55,0,0,0,.137.018,3.167,3.167,0,0,0,.731-.1c0-.153,0-.326,0-.52q-.006-.348-.006-.5a8.437,8.437,0,0,1,.057-1.052.365.365,0,0,1,.408-.354.445.445,0,0,1,.3.11.325.325,0,0,1,.117.277Q306.786,446.775,306.786,446.689Z" transform="translate(-297.809 -443.759)" fill="#ff7f00"/>
          <path id="Path_55891" data-name="Path 55891" d="M319.2,446.315q-.027.455-.417.454a.338.338,0,0,1-.378-.386l-.015-.3a1.231,1.231,0,0,0-.965.686l0,1.495a.372.372,0,0,1-.117.281.414.414,0,0,1-.3.111.359.359,0,0,1-.288-.119.394.394,0,0,1-.1-.273v-1.946c0-.061,0-.153.006-.274s.006-.214.006-.275a.4.4,0,0,1,.1-.278.363.363,0,0,1,.286-.112.367.367,0,0,1,.4.339,1.935,1.935,0,0,1,1.178-.392q.6,0,.6.791C319.2,446.217,319.2,446.283,319.2,446.315Z" transform="translate(-307.144 -443.81)" fill="#ff7f00"/>
          <path id="Path_55892" data-name="Path 55892" d="M329.869,446.172a.32.32,0,0,1-.357-.247,1.471,1.471,0,0,0-.246-.021q-.723,0-.722.2,0,.116.434.312a5.358,5.358,0,0,1,.8.422.876.876,0,0,1,.434.7.84.84,0,0,1-.48.776,1.955,1.955,0,0,1-.95.211,2.085,2.085,0,0,1-.728-.122q-.449-.167-.449-.49c0-.2.119-.3.356-.3a1.392,1.392,0,0,1,.4.086,1.386,1.386,0,0,0,.4.086q.608,0,.611-.244,0-.151-.423-.336a6.071,6.071,0,0,1-.791-.389.857.857,0,0,1-.422-.716.8.8,0,0,1,.639-.805,3.938,3.938,0,0,1,1.139-.122.972.972,0,0,1,.444.077.393.393,0,0,1,.2.383Q330.159,446.172,329.869,446.172Z" transform="translate(-315.267 -443.7)" fill="#ff7f00"/>
          <path id="Path_55893" data-name="Path 55893" d="M352.547,444.427a.391.391,0,0,1-.333-.2l-.27-.449a2.048,2.048,0,0,1-1.322.49,1.579,1.579,0,0,1-1.034-.354,1.164,1.164,0,0,1-.459-.945,1.255,1.255,0,0,1,.45-.96,9.705,9.705,0,0,1,.941-.639,2.478,2.478,0,0,1-.174-.835,1.082,1.082,0,0,1,.275-.666.837.837,0,0,1,.651-.374.908.908,0,0,1,.668.259.817.817,0,0,1,.249.6,1.518,1.518,0,0,1-.713,1.221,8.287,8.287,0,0,0,.462.811l.1-.466a.358.358,0,0,1,.342-.282.328.328,0,0,1,.285.163.55.55,0,0,1,.093.312,2.092,2.092,0,0,1-.294,1.061,2.655,2.655,0,0,1,.482.885.323.323,0,0,1-.123.257A.423.423,0,0,1,352.547,444.427Zm-1.687-2.419-.62.392a.735.735,0,0,0-.336.573.494.494,0,0,0,.216.413.819.819,0,0,0,.5.155,1.244,1.244,0,0,0,.893-.38Q351.333,442.891,350.859,442.008Zm.414-1.774a.183.183,0,0,0-.138.116.425.425,0,0,0-.045.187,1.244,1.244,0,0,0,.057.229c.042.138.064.215.066.229a1.286,1.286,0,0,0,.191-.252.578.578,0,0,0,.1-.271.345.345,0,0,0-.033-.181C351.443,440.243,351.375,440.224,351.273,440.234Z" transform="translate(-331.189 -439.5)" fill="#ff7f00"/>
          <path id="Path_55894" data-name="Path 55894" d="M377.031,443.167c-.042,0-.092,0-.148,0s-.107,0-.149,0a1.989,1.989,0,0,0-.285.024q.054,1.2.054,1.569c0,.025,0,.074,0,.144s0,.128,0,.171q0,.684-.434.683a.429.429,0,0,1-.285-.1.331.331,0,0,1-.132-.267c0-.072,0-.178.009-.321s.009-.25.009-.321q0-.359-.054-1.539c-.124-.006-.311-.023-.562-.049s-.376-.155-.376-.385a.387.387,0,0,1,.114-.282.394.394,0,0,1,.294-.116q.111,0,.509.036c0-.063-.007-.168-.015-.315q-.012-.19-.012-.294a.354.354,0,0,1,.123-.276.431.431,0,0,1,.3-.11q.444,0,.444.74l-.006.243a2.237,2.237,0,0,1,.3-.027,1.642,1.642,0,0,1,.471.045.345.345,0,0,1,.24.362.375.375,0,0,1-.117.282A.409.409,0,0,1,377.031,443.167Z" transform="translate(-350.095 -440.912)" fill="#ff7f00"/>
          <path id="Path_55895" data-name="Path 55895" d="M389.038,446.315q-.027.455-.417.454a.337.337,0,0,1-.377-.386l-.015-.3a1.231,1.231,0,0,0-.965.686l0,1.495a.372.372,0,0,1-.117.281.415.415,0,0,1-.3.111.359.359,0,0,1-.288-.119.4.4,0,0,1-.1-.273v-1.946c0-.061,0-.153.006-.274s.006-.214.006-.275a.4.4,0,0,1,.1-.278.364.364,0,0,1,.286-.112.368.368,0,0,1,.4.339,1.934,1.934,0,0,1,1.178-.392q.6,0,.6.791C389.041,446.217,389.039,446.283,389.038,446.315Z" transform="translate(-358.814 -443.81)" fill="#ff7f00"/>
          <path id="Path_55896" data-name="Path 55896" d="M400.219,448.706a.87.87,0,0,1-.437-.264,3.886,3.886,0,0,1-.486.2,1.189,1.189,0,0,1-.356.067,1.421,1.421,0,0,1-1.084-.383,1.617,1.617,0,0,1-.361-1.147,1.634,1.634,0,0,1,.533-1.225,1.783,1.783,0,0,1,1.277-.51,1.729,1.729,0,0,1,.659.158q.453.192.453.445a.273.273,0,0,1-.069.185,1.916,1.916,0,0,0-.046.3c-.011.119-.016.257-.016.417a2.848,2.848,0,0,0,.081.809c.006.018.052.119.138.306a1.585,1.585,0,0,1,.117.288.326.326,0,0,1-.122.259A.421.421,0,0,1,400.219,448.706Zm-.743-2.006a2.071,2.071,0,0,1,.013-.219q.014-.123.04-.275a.612.612,0,0,0-.106-.043.272.272,0,0,0-.08-.014.961.961,0,0,0-.713.317,1.138,1.138,0,0,0-.162,1.331.5.5,0,0,0,.432.2,1.006,1.006,0,0,0,.353-.061,1.1,1.1,0,0,0,.313-.179A9.175,9.175,0,0,1,399.476,446.7Z" transform="translate(-366.971 -443.895)" fill="#ff7f00"/>
          <path id="Path_55897" data-name="Path 55897" d="M413.208,448.347a.367.367,0,0,1-.41-.359q-.042-.306-.084-.615a4.547,4.547,0,0,1-.045-.615c0-.052,0-.14.01-.264s.011-.213.011-.265c0-.013,0-.049.006-.106s.006-.1.006-.138c0-.165-.04-.247-.12-.247a.668.668,0,0,0-.5.327,2.458,2.458,0,0,0-.387.83c0,.067-.012.156-.025.267a2.206,2.206,0,0,0-.017.268,2.535,2.535,0,0,1-.02.258,2.574,2.574,0,0,0-.02.257.381.381,0,0,1-.118.288.446.446,0,0,1-.6,0,.383.383,0,0,1-.117-.286c0-.056-.006-.142-.018-.255s-.018-.2-.018-.256q0-.291.042-.807t.042-.808c0-.061,0-.15-.01-.271s-.011-.21-.011-.268a.362.362,0,0,1,.121-.28.426.426,0,0,1,.3-.111q.393,0,.42.467l0,.033a1.3,1.3,0,0,1,.923-.437.786.786,0,0,1,.782.47,2.366,2.366,0,0,1,.144.942v.211c0,.091,0,.156,0,.193a3.59,3.59,0,0,0,.064.6,3.549,3.549,0,0,1,.065.594.359.359,0,0,1-.12.276A.424.424,0,0,1,413.208,448.347Z" transform="translate(-376.774 -443.488)" fill="#ff7f00"/>
          <path id="Path_55898" data-name="Path 55898" d="M425.17,446.172a.32.32,0,0,1-.356-.247,1.476,1.476,0,0,0-.246-.021q-.723,0-.722.2,0,.116.434.312a5.345,5.345,0,0,1,.8.422.876.876,0,0,1,.434.7.84.84,0,0,1-.479.776,1.956,1.956,0,0,1-.95.211,2.086,2.086,0,0,1-.729-.122q-.449-.167-.449-.49c0-.2.119-.3.356-.3a1.392,1.392,0,0,1,.4.086,1.387,1.387,0,0,0,.4.086c.405,0,.61-.081.611-.244q0-.151-.423-.336a6.066,6.066,0,0,1-.791-.389.857.857,0,0,1-.423-.716.8.8,0,0,1,.639-.805,3.938,3.938,0,0,1,1.139-.122.971.971,0,0,1,.444.077.393.393,0,0,1,.2.383Q425.46,446.172,425.17,446.172Z" transform="translate(-385.775 -443.7)" fill="#ff7f00"/>
          <path id="Path_55899" data-name="Path 55899" d="M436.161,448.252a2.647,2.647,0,0,1-.542-.06l0,1.212a.381.381,0,0,1-.117.285.446.446,0,0,1-.593,0,.38.38,0,0,1-.117-.285q0-.14.006-1.108.006-.719,0-1.174-.009-.642-.042-1.105c-.03-.426-.045-.621-.045-.585a.773.773,0,0,1,.111-.422.4.4,0,0,1,.348-.2.384.384,0,0,1,.282.113.368.368,0,0,1,.114.271l0,.03a1.732,1.732,0,0,1,.4-.168,1.532,1.532,0,0,1,.406-.055,1.067,1.067,0,0,1,1.007.58,2.368,2.368,0,0,1,.237,1.132,1.577,1.577,0,0,1-.375,1.079A1.355,1.355,0,0,1,436.161,448.252Zm.207-2.457a.926.926,0,0,0-.384.088,1.566,1.566,0,0,0-.393.263q.036.612.036,1.227a1.715,1.715,0,0,0,.533.086.56.56,0,0,0,.474-.217.852.852,0,0,0,.15-.529,2.831,2.831,0,0,0-.036-.556Q436.661,445.795,436.368,445.795Z" transform="translate(-394.502 -443.429)" fill="#ff7f00"/>
          <path id="Path_55900" data-name="Path 55900" d="M448.315,448.777a1.338,1.338,0,0,1-.953-.377,1.509,1.509,0,0,1-.459-1.1,1.8,1.8,0,0,1,.363-1.171,1.5,1.5,0,0,1,1.268-.606,1.127,1.127,0,0,1,.953.475,1.73,1.73,0,0,1,.318,1.061,1.884,1.884,0,0,1-.372,1.177A1.336,1.336,0,0,1,448.315,448.777Zm.18-2.472a.651.651,0,0,0-.582.333,1.2,1.2,0,0,0-.18.66.711.711,0,0,0,.2.547.535.535,0,0,0,.378.152.648.648,0,0,0,.453-.175.772.772,0,0,0,.234-.556Q449.041,446.308,448.5,446.3Z" transform="translate(-403.525 -443.954)" fill="#ff7f00"/>
          <path id="Path_55901" data-name="Path 55901" d="M462.346,446.315q-.027.455-.417.454a.338.338,0,0,1-.378-.386l-.015-.3a1.231,1.231,0,0,0-.965.686l0,1.495a.372.372,0,0,1-.117.281.414.414,0,0,1-.3.111.36.36,0,0,1-.288-.119.4.4,0,0,1-.1-.273v-1.946c0-.061,0-.153.006-.274s.006-.214.006-.275a.4.4,0,0,1,.1-.278.408.408,0,0,1,.682.227,1.935,1.935,0,0,1,1.178-.392q.6,0,.6.791C462.349,446.217,462.347,446.283,462.346,446.315Z" transform="translate(-413.05 -443.81)" fill="#ff7f00"/>
          <path id="Path_55902" data-name="Path 55902" d="M472.792,443.167c-.042,0-.092,0-.148,0s-.107,0-.149,0a1.988,1.988,0,0,0-.285.024q.054,1.2.054,1.569c0,.025,0,.074,0,.144s0,.128,0,.171q0,.684-.434.683a.429.429,0,0,1-.285-.1.331.331,0,0,1-.132-.267q0-.107.009-.321t.009-.321q0-.359-.054-1.539c-.124-.006-.311-.023-.562-.049s-.376-.155-.376-.385a.387.387,0,0,1,.114-.282.394.394,0,0,1,.294-.116q.111,0,.509.036,0-.1-.015-.315-.012-.19-.012-.294a.354.354,0,0,1,.123-.276.431.431,0,0,1,.3-.11q.444,0,.444.74l-.006.243a2.238,2.238,0,0,1,.3-.027,1.644,1.644,0,0,1,.471.045.345.345,0,0,1,.24.362.375.375,0,0,1-.117.282A.409.409,0,0,1,472.792,443.167Z" transform="translate(-420.943 -440.912)" fill="#ff7f00"/>
          <path id="Path_55903" data-name="Path 55903" d="M483.7,443.312q0,.169.01.544t.011.544a.374.374,0,0,1-.117.284.449.449,0,0,1-.593,0,.372.372,0,0,1-.117-.284q0-.169-.011-.544t-.011-.544q0-.265.03-.663t.03-.663a.375.375,0,0,1,.117-.284.45.45,0,0,1,.593,0,.373.373,0,0,1,.117.284q0,.265-.03.663T483.7,443.312Zm-.255-2.178a.48.48,0,0,1-.332-.128.416.416,0,0,1,0-.624.481.481,0,0,1,.332-.128.475.475,0,0,1,.331.128.419.419,0,0,1,0,.624A.475.475,0,0,1,483.446,441.134Z" transform="translate(-430.138 -440.058)" fill="#ff7f00"/>
          <path id="Path_55904" data-name="Path 55904" d="M489.79,448.777a1.338,1.338,0,0,1-.953-.377,1.509,1.509,0,0,1-.459-1.1,1.8,1.8,0,0,1,.363-1.171,1.5,1.5,0,0,1,1.268-.606,1.128,1.128,0,0,1,.953.475,1.732,1.732,0,0,1,.318,1.061,1.884,1.884,0,0,1-.372,1.177A1.336,1.336,0,0,1,489.79,448.777Zm.18-2.472a.651.651,0,0,0-.582.333,1.206,1.206,0,0,0-.18.66.712.712,0,0,0,.2.547.534.534,0,0,0,.378.152.647.647,0,0,0,.452-.175.773.773,0,0,0,.234-.556Q490.516,446.308,489.97,446.3Z" transform="translate(-434.21 -443.954)" fill="#ff7f00"/>
          <path id="Path_55905" data-name="Path 55905" d="M503.543,448.347a.368.368,0,0,1-.411-.359q-.042-.306-.084-.615a4.547,4.547,0,0,1-.045-.615c0-.052,0-.14.01-.264s.011-.213.011-.265c0-.013,0-.049.006-.106s.006-.1.006-.138c0-.165-.04-.247-.12-.247a.669.669,0,0,0-.5.327,2.464,2.464,0,0,0-.387.83c0,.067-.012.156-.025.267a2.249,2.249,0,0,0-.017.268,2.521,2.521,0,0,1-.02.258,2.578,2.578,0,0,0-.02.257.381.381,0,0,1-.118.288.446.446,0,0,1-.6,0,.383.383,0,0,1-.117-.286c0-.056-.006-.142-.018-.255s-.018-.2-.018-.256q0-.291.042-.807t.042-.808c0-.061,0-.15-.01-.271s-.011-.21-.011-.268a.362.362,0,0,1,.121-.28.428.428,0,0,1,.3-.111q.393,0,.42.467l0,.033a1.3,1.3,0,0,1,.923-.437.786.786,0,0,1,.782.47,2.367,2.367,0,0,1,.144.942v.211c0,.091,0,.156,0,.193a3.568,3.568,0,0,0,.064.6,3.552,3.552,0,0,1,.065.594.359.359,0,0,1-.12.276A.424.424,0,0,1,503.543,448.347Z" transform="translate(-443.607 -443.488)" fill="#ff7f00"/>
        </g>
      </g>
      <g id="Group_2419" data-name="Group 2419" transform="translate(29.125)">
        <path id="Path_55906" data-name="Path 55906" d="M243.7,254.951l.206.32c0,.02,0,.041-.006.061l.007.009.04-.005.225.093.045.006.02.03-.021.028.172.069a.65.65,0,0,1,.232.036.716.716,0,0,0,1.034-.241c.3-.379.722-.636,1.008-1.029.152-.209.338-.372.49-.578a2.513,2.513,0,0,1,.751-.632c-.1.435-.536.632-.472,1.136l.007-.009-.254.162.009-.026-.2.318c-.436.007-.67.315-.8,1.056l-.009.014a.706.706,0,0,0-.2.705c.079.472.084.96.139,1.438.075.652.588.9.911,1.322a2.8,2.8,0,0,0,.245.336c.234.224.48.429.788.7l-.408.34a3.3,3.3,0,0,1-.194-.427c-.077-.254-.508-.583-.72-.525.159-.512-.263-.547-.4-.815l-.159.115.373.766c-.072.1-.213.208-.205.3.062.673.153,1.342.239,2.048l1.9-.226a3.953,3.953,0,0,0-.223-2.572c.031-.049.054-.128.094-.143.461-.166.452-.591.472-1.048.119-2.707,1.485-4.6,3.733-5.217a2.316,2.316,0,0,0,.472-.128c.1-.05.244-.239.226-.282a1.212,1.212,0,0,1,.027-.806,4.1,4.1,0,0,0,.015-.847l.11-.007c.012.26.021.519.035.779.016.3.16.59.013.9a.741.741,0,0,0,.3.292c.332.129.685.183,1.013.322,1.874.795,2.819,2.436,3.055,4.7.059.569-.109,1.247.493,1.409a4.115,4.115,0,0,0-.184.756c-.026.616-.011,1.233-.014,1.9l1.756.231c0-.508,0-.973,0-1.438q0-.846-.008-1.692a9.892,9.892,0,0,0-.069-2.4,6.868,6.868,0,0,1-.034-2.049c0-.464-.078-.7-.506-.623a.307.307,0,0,1-.284-.133c.392-.107.779-.243,1.176-.311.325-.056.423-.231.4-.6-.026-.521-.016-1.045-.019-1.568,0-.262-.05-.522.255-.665.085-.04.11-.406.08-.605a1.4,1.4,0,0,1,.465-1.449c.127-.1.158-.369.209-.5a4.971,4.971,0,0,1,.511.758,2.919,2.919,0,0,1,.229.913c.035.377-.187.818.267,1.065.061.033.061.262.061.4,0,.586-.005,1.173-.027,1.758-.011.288.064.426.321.479a4.194,4.194,0,0,1,1.219.445l-.756.068c.026.641.06,1.251.07,1.862a2.47,2.47,0,0,1-.1.54,1.616,1.616,0,0,0-.075.3c-.008.87-.024,1.742,0,2.611a1.116,1.116,0,0,0,.4,1c.042.027.036.143.07.2.069.121.15.232.227.346.078-.114.161-.224.232-.344a.728.728,0,0,0,.044-.192l.7,0,.086.492c.2.073.341.111.393-.238.027-.183.227-.326.268-.512a6.723,6.723,0,0,0,.12-1.025c.019-.3.005-.594.006-.891l.112-.048a3.326,3.326,0,0,0,.308.61c.066.085.315.122.35.067a9.07,9.07,0,0,0,.447-.9l.552.99.573-1.011c.131.305.25.6.387.884a.238.238,0,0,0,.192.118.31.31,0,0,0,.229-.124,4.46,4.46,0,0,1,.41-.678,2.4,2.4,0,0,0,0,.316c.022.16.06.318.092.476l.335-.361c.124.266.264.577.417.879a.169.169,0,0,0,.17.068.322.322,0,0,0,.138-.194c.048-.221.073-.448.123-.781.134.292.237.483.371-.068.061.405.086.633.134.854.016.074.083.173.139.186a.222.222,0,0,0,.187-.113c.144-.274.27-.56.446-.932.163.38.282.678.421.964a.208.208,0,0,0,.2.092c.053-.017.1-.125.12-.2.048-.223.079-.452.129-.751l.172.332.223-.327.138.893c.149.035.149.035.507-.884l.395.03c.064.253.114.492.187.721.026.081.106.137.162.2.054-.073.138-.138.156-.221.048-.223.067-.454.11-.773l.2.355.189-.307c.045.257.071.471.124.676a1.2,1.2,0,0,0,.153.277,1.8,1.8,0,0,0,.191-.236c.138-.24.265-.488.426-.787.153.329.278.615.42.888a.227.227,0,0,0,.185.12c.055-.011.123-.11.14-.185.046-.209.067-.425.116-.764.15.354.261.392.393.078.038.2.064.413.118.611a1.144,1.144,0,0,0,.16.272,2.513,2.513,0,0,0,.179-.242c.14-.24.273-.485.4-.718l.314.371.158-.833a4.546,4.546,0,0,0,.369.747.349.349,0,0,0,.391-.018,6.917,6.917,0,0,0,.417-.91c.159.344.3.659.456.958.018.035.2.022.221-.026.148-.275.273-.568.432-.911.155.34.281.638.428.921a.23.23,0,0,0,.208.088c.062-.01.13-.087.17-.155.109-.187.2-.385.306-.579l.111.035c0,.355-.025.712,0,1.064s.034.9.18.964c.309.14.032.872.577.648l.1-.491.7,0,.076.5.285.02.546-1.038.519,1.048c.309.162.313-.191.342-.524l.706,0a.988.988,0,0,0,.059.255,1.975,1.975,0,0,0,.207.271c.075-.1.206-.195.215-.3.045-.541.057-1.085.083-1.628.035-.733.092-1.466.1-2.2.009-.718-.057-1.437-.045-2.155.019-1.15.064-2.3.124-3.449a2.654,2.654,0,0,1,.223-.584c.27-.855.532-1.713.817-2.637.156.424.3.78.42,1.146a20.367,20.367,0,0,1,.616,1.942,5.747,5.747,0,0,1,.02,1.251c0,.665-.033,1.333,0,2,.023.525.166,1.045.168,1.567,0,.827-.088,1.653-.1,2.481-.022,1.121-.011,2.243-.014,3.423a.713.713,0,0,0,.575-.817c-.03-.58,0-1.163,0-1.812l4.232.012-.18-.613a6.047,6.047,0,0,1,.659-.034c.223.013.321-.086.406-.337.329-.966.668-1.93,1.044-2.873a2.382,2.382,0,0,1,1.293-1.487,1.813,1.813,0,0,0,1.2-1.634c.176.341.382.767.613,1.175a.665.665,0,0,0,.32.3,2.834,2.834,0,0,1,1.766,1.99c.305.892.615,1.781.946,2.66.042.11.22.18.345.209a4.882,4.882,0,0,0,.651.068l-.167.552c.154.017.277.043.4.044.7,0,1.4,0,2.1.006.521,0,.52,0,.517.634,0,.535,0,1.07,0,1.624l.837.062c.013.245.043.479.034.711-.011.3.091.379.335.374a13.45,13.45,0,0,0,2.018-.029,3.332,3.332,0,0,0,1.19-.707c.06-.043,0-.32-.01-.541l.24-.087-.092-.14.253.258c-.31.416-.136.714.624,1.053.029-.62.081-1.235.083-1.849a25.429,25.429,0,0,1,0-3.359c.174-1.249.046-2.48.117-3.715.013-.227-.075-.46-.085-.691a1.544,1.544,0,0,1,.06-.539c.3-.883.625-1.753.91-2.641a3.782,3.782,0,0,0,.074-.828l-.126-.025.261-.323.094.436c-.161.168-.027.484.073.783.291.869.6,1.728.882,2.6a2.164,2.164,0,0,1,.018.666c0,.172-.041.344-.042.516-.007.887-.018,1.775-.007,2.662.019,1.567.051,3.134.08,4.7.01.561.02,1.123.041,1.684.073,1.92.15,3.84.228,5.812.463.037.956.08,1.45.117.929.069,1.858.129,2.786.206a1.179,1.179,0,0,1,.343.151l-.035.125-88.983-.251-.009-.144,3.432-.245.023-8.079.773,0,.054.524c.047,0,.094-.005.094-.005.011-.636.392-.567.748-.552.212.009.424,0,.627,0l.107.572.089,0,.092-.539,1.292,0,.1.537.1.005.089-.535.509-.067.021-7.477c.372.034.544-.131.48-.413l.031.258a3.566,3.566,0,0,1,.729-2.676,4.957,4.957,0,0,0,.364.674,2.2,2.2,0,0,1,.261,1.435c-.006.652-.014.652.545.769l-.021,7.455c.689.016,1.345.177,1.868-.46.036-.044.128-.025.194-.035l-.013.011.268-.526.006-.03.154-.213a1.061,1.061,0,0,0,.906-.819c0-.075-.163-.145-.251-.217a11.861,11.861,0,0,0,.482-1.616,1.246,1.246,0,0,0-.338-.764c-.459-.576-.964-1.1-1.43-1.673-.13-.159-.31-.47-.259-.587.148-.342.391-.06.6,0-.031.106-.114.277-.085.309.209.229.345.612.719.534l.16.227,0,.051-.01.008-.069.1.326.376.4.265-.011.009.058-.076Zm29.346,12.168c.6,0,1.151.015,1.7-.01.073,0,.195-.2.2-.312a18.848,18.848,0,0,0,0-1.894.655.655,0,0,0-.359-.487,3.907,3.907,0,0,0-1.166-.01.52.52,0,0,0-.349.356C273.034,265.53,273.049,266.3,273.046,267.119Zm14.606-6.666c-.01.219-.029.459-.03.7,0,.819,0,.819.719.734.023,0,.043-.034.068-.055l0-1.376Zm17.284,4.492a10.242,10.242,0,0,0-.014-1.271c-.02-.163-.233-.292-.358-.437-.117.159-.292.3-.337.482a5.247,5.247,0,0,0-.026.8c-.025.326.074.471.359.431A2.912,2.912,0,0,1,304.937,264.945Zm-17.2-10.842c.61.186.663.146.658-.514a4.153,4.153,0,0,0-.048-.7c-.022-.12-.112-.3-.19-.311a1.01,1.01,0,0,0-.412.1l.034.118.332.138-.016.076-.355.038Zm.426,2.854.164.826-.557,0,.156-.773c-.28.04-.407.463-.276,1.155.1.545.494.163.747.251C288.535,257.582,288.475,257.079,288.158,256.957Zm-45.185,4,.089.021.248-1.9-.139-.087-.7,1.091.5.072Zm54.541-2.828c-.172-.258-.271-.545-.389-.556-.314-.029-.265.311-.277.554s-.014.5.271.422C297.247,258.51,297.342,258.316,297.514,258.126Zm2.578-.005c-.169-.25-.268-.532-.387-.544-.36-.038-.254.337-.278.579s.015.483.282.4C299.836,258.511,299.926,258.316,300.093,258.12Zm-26.307,3.447.449-.029,0-.773h-.449Zm36.342,5.243-.1.088c0,.28-.015.561.005.838.006.089.1.168.156.252.046-.079.123-.154.13-.237a3.648,3.648,0,0,0,0-.7C310.308,266.96,310.194,266.889,310.128,266.809Zm2.291-11.938-.237-.01c0,.365-.007.729,0,1.093a.184.184,0,0,0,.128.131.18.18,0,0,0,.13-.125C312.443,255.6,312.428,255.234,312.418,254.871Zm-52.464.15.165-.014c.006-.364.117-.738-.162-1.076Zm28.446,1.83.063-.17a1.322,1.322,0,0,0-.472-.216c-.119,0-.241.163-.361.253l.063.132Zm22.281,9.976-.158.068a2.361,2.361,0,0,0-.014.366c.028.255.075.508.114.761a7.518,7.518,0,0,0,.151-.777A1.381,1.381,0,0,0,310.682,266.826Zm2.214-11.962-.216,0c-.009.377-.022.753-.022,1.13,0,.034.074.1.114.1s.114-.06.115-.1C312.9,255.616,312.894,255.24,312.9,254.864ZM300.79,262.6l-.205-.72c-.078.036-.212.058-.223.112a4.535,4.535,0,0,0-.041.607Zm-1.55-.03c.407.115.534-.026.486-.32a1.308,1.308,0,0,0-.215-.39Zm-2.211-.036.1.092c.108-.044.3-.075.307-.133a2.006,2.006,0,0,0-.058-.581c-.005-.027-.168-.048-.172-.035C297.138,262.087,297.085,262.309,297.029,262.529Zm-1.023.144c.231-.091.425-.117.434-.18a1.83,1.83,0,0,0-.045-.581c-.005-.03-.2-.051-.2-.036C296.132,262.095,296.086,262.319,296.006,262.673Zm-32.926-7.647.113,0,0-1.091-.113,0Zm24.544,5.122.045.14.732,0,.05-.128c-.13-.082-.26-.232-.389-.23C287.916,259.934,287.771,260.07,287.624,260.148Zm8.346-2.442-.2-.009c-.014.245-.034.49-.035.735,0,.034.1.105.145.094a.205.205,0,0,0,.111-.155C296,258.15,295.98,257.928,295.97,257.706Zm16.614,7.349c-.257.433-.245.72,0,.92Zm-11.778-6.541.16.035a.757.757,0,0,0,.035-.818l-.134-.016Z" transform="translate(-229.507 -247.911)" fill="#ff7f00"/>
        <path id="Path_55907" data-name="Path 55907" d="M491.8,261.818l.579,0c.018-.272.034-.51.05-.749l.1.008,0,.707.621,0v.149l-1.342,0Z" transform="translate(-423.564 -257.647)" fill="#ff7f00"/>
      </g>
      <path id="Path_55908" data-name="Path 55908" d="M532.433,313.7a.652.652,0,0,1-.514.051c-.86-.176-1.218.411-1.529,1.1-.367.812-.428,1.528.466,2.008a4.621,4.621,0,0,1,.6.459c-1.328.022-2.656.042-3.984.068a.569.569,0,0,1-.621-.309,9.486,9.486,0,0,0-1.266-1.951,17.046,17.046,0,0,0-1.693-1.579h6.08A19.6,19.6,0,0,1,532.433,313.7Z" transform="translate(-418.181 -296.473)" fill="#ff7f00"/>
      <path id="Path_55909" data-name="Path 55909" d="M229.653,404.359a1.631,1.631,0,0,1-.281,1.043c-1.056.013-2.107-.016-3.158.052-.734.049-1.116-.125-.981-.934a3.577,3.577,0,0,0,.008-.554h.021a.165.165,0,0,0-.021-.01,9.16,9.16,0,0,0-2.781-5.367,1.158,1.158,0,0,0,.117-.541,1.2,1.2,0,0,0-.31-.752.552.552,0,0,0,.226-.146c.323-.367-.021-1.137-.127-1.446a4.066,4.066,0,0,1,.476-3.114c0-2.677-.021-5.349.018-8.026a2.142,2.142,0,0,0-.767-1.881c-.19-.153-.7-.338-.237-.752q1.3,0,2.616-.006c1.209-.009,1.727-.033,2.758-.035,1,0,1.807.015,2.328.029a57.689,57.689,0,0,1,.036,6.22c-.067,1.384-.554,12.5-.151,14.113A4.958,4.958,0,0,1,229.653,404.359Z" transform="translate(-194.582 -347.034)" fill="#ff7f00"/>
      <path id="Path_55910" data-name="Path 55910" d="M239.831,382.03c-.278.211-.606.115-.921.12a1.77,1.77,0,0,1,.343-.016A1.984,1.984,0,0,0,239.831,382.03Z" transform="translate(-207.338 -347.138)" fill="#ff7f00"/>
      <path id="Path_55911" data-name="Path 55911" d="M145.785,348.571c-.5-.43-.993-.86-1.487-1.295a8.927,8.927,0,0,0-13.925,7.22c-.013.473-.132.643-.626.639-2.828-.026-5.652.013-8.476-.03a3.391,3.391,0,0,1-3.263-3.007c-.1-.924-.055-1.861-.1-2.79-.026-.494.179-.656.656-.639.741.025,1.491.03,2.232,0a1.463,1.463,0,1,0-.06-2.913c-.464-.009-.929.009-1.393.017-.124,0-.247,0-.375.009-.9.294-1.355.021-1.337-.843.089-4.494-.239-9,.038-13.49.443-7.246.673-10.968.239-13.281a3.679,3.679,0,0,1,.213-2.347,4.86,4.86,0,0,1,2.279-1.942q1.65.069,3.314.124,10.656.346,20.778.051c.243.209.533.1.8.111,1.1.021,1.482.413,1.512,1.589a1.53,1.53,0,0,1-1.465,1.763,1.416,1.416,0,0,0-.639.073c-2.079.017-4.153.047-6.232.047q-6.37.013-12.745,0c-1.989,0-2.986.473-3.744,1.959a2.515,2.515,0,0,0-.115.835c.017,2.518-.03,5.031.017,7.548.047,2.33,1.222,3.467,3.548,3.506.311.008.622,0,.933,0q8.472,0,16.953,0a3.176,3.176,0,0,1,1.465.166,8.247,8.247,0,0,1,1.321,2.782c.367,1.434-.037,2.134,0,4.842.023,1.664.046,3.328,0,4.993Q145.94,346.425,145.785,348.571Z" transform="translate(-117.554 -296.716)" fill="#ff7f00"/>
      <path id="Path_55912" data-name="Path 55912" d="M544.115,331.7c5.938,2.723,11.663,5.873,17.524,8.75a14.063,14.063,0,0,0,3.7,1.466,2.844,2.844,0,0,0,3.566-3.28c-.344-2.322-.827-4.622-1.249-6.932-.646-3.7-1.233-7.4-1.961-11.082-.359-1.813-2.478-3.226-4.528-3.23-4.426-.008-6.941-.122-16.312-.006-1.145.014-2.068,0-2.6-.006v-3.834c9.113.143,15.8.274,18.7.186a7.672,7.672,0,0,1,4.176.895,6.864,6.864,0,0,1,2.072,1.86c.02.058.041.116.058.174.433,1.521,1.44,1.933,2.964,1.785a12.891,12.891,0,0,1,3.5.051c.54,3.617,1.066,7.237,1.628,10.851.25,1.612.284,1.606-1.32,1.6-1.458-.005-1.475,0-1.719-1.485-.448-2.722-.9-5.443-1.291-8.173-.1-.721-.325-1.075-1.094-.938a2.839,2.839,0,0,1-.743-.013c-.5-.046-.615.123-.529.641q.942,5.688,1.817,11.389c.857,5.611.946,8.183,1.614,10.659a11.321,11.321,0,0,1,.408,3.387c-.011.342-.036.615-.052.763-.248.024-.639.055-1.12.06-1.625.018-2.352-.281-2.8.186a1.4,1.4,0,0,0-.311.754,1.75,1.75,0,0,0,.137,1.388,1.316,1.316,0,0,0,.53.437,8,8,0,0,0,2.859.139c.726-.02.9.224.868.9-.052,1.052-.039,2.109,0,3.161.019.543-.183.688-.7.684-3.348-.023-6.7-.038-10.042-.009-.622.005-.6-.294-.627-.733a8.952,8.952,0,0,0-14.148-6.952,22.226,22.226,0,0,0-1.836,1.693c-.679.295-.749,1.02-1.093,1.551-.146.226-.215.569-.576.494-.322-.067-.4-.367-.419-.654a8.26,8.26,0,0,1,.207-1.439c.057-.805-.375-1.638-.693-1.642-.18,0-.189.263-.74.907a2.58,2.58,0,0,1-.963.717c-.356.145-.546.053-.466-.37a5.681,5.681,0,0,1,1.468-1.782,2.3,2.3,0,0,0,.773-1.89c-.067-2.54-.022-5.082-.025-7.623a12.967,12.967,0,0,0-.133-2.316s-.063-2.006.568-2.688a1.6,1.6,0,0,1,.37-.289A1.42,1.42,0,0,1,544.115,331.7Z" transform="translate(-430.463 -296.473)" fill="#ff7f00"/>
      <path id="Path_55913" data-name="Path 55913" d="M561,455.447a7.269,7.269,0,0,1-.779-6.59,6.808,6.808,0,1,1,8.005,9.134,6.61,6.61,0,0,1-6.44-1.771c-.261-.261-.526-.518-.79-.776Z" transform="translate(-444.713 -393.371)" fill="#ff7f00"/>
      <path id="Path_55914" data-name="Path 55914" d="M187.973,454a6.438,6.438,0,0,1-5.507,4.153,6.756,6.756,0,0,1-6.883-3.757,6.968,6.968,0,0,1,1.193-7.769,6.776,6.776,0,0,1,7.531-1.546c.339.176,3.826,2.053,4.193,5.561A7.206,7.206,0,0,1,187.973,454Z" transform="translate(-159.972 -393.388)" fill="#ff7f00"/>
      <path id="Path_55915" data-name="Path 55915" d="M239.831,382.03c-.278.211-.606.115-.921.12a1.77,1.77,0,0,1,.343-.016A1.984,1.984,0,0,0,239.831,382.03Z" transform="translate(-207.338 -347.138)" fill="#ff7f00"/>
      <path id="Path_55916" data-name="Path 55916" d="M538.784,448.567c-.2.17-.14.831-.69.383C538.541,449.214,538.4,448.4,538.784,448.567Z" transform="translate(-428.688 -396.349)" fill="#ff7f00"/>
      <path id="Path_55917" data-name="Path 55917" d="M529.426,399.534a9.467,9.467,0,0,0-1.862,5.341c-.008.447-.064.677-.592.66-1.423-.043-2.85-.039-4.277-.051h-3.6a10.1,10.1,0,0,0,4.01-3.5c1.134-1.771,1.574-3.861,1.02-12.448-.129-2-.325-4.56-.634-7.537l4.6.389a3.138,3.138,0,0,0-1.074,2.939c.124.988.115,1.968.141,2.952.022.7.023,1.4.018,2.107a43.917,43.917,0,0,0,.025,5A7.93,7.93,0,0,0,529.426,399.534Z" transform="translate(-414.636 -347.116)" fill="#ff7f00"/>
      <path id="Path_55918" data-name="Path 55918" d="M573.739,454.331a4.284,4.284,0,1,1-4.216,4.307A4.289,4.289,0,0,1,573.739,454.331Z" transform="translate(-451.94 -400.629)" fill="#ff7f00"/>
      <path id="Path_55919" data-name="Path 55919" d="M188.95,454.366a4.279,4.279,0,1,1-4.3,4.216A4.3,4.3,0,0,1,188.95,454.366Z" transform="translate(-167.195 -400.656)" fill="#ff7f00"/>
      <path id="Path_55920" data-name="Path 55920" d="M228.682,317.872l-7.384.211c.193-.216.453-.135.692-.164a1.314,1.314,0,0,0,1.134-1.168,2.114,2.114,0,0,0-.471-1.891c-.109-.12-.4-.078-.614-.1-.323-.042-.687.107-.95-.206l7.65.036Z" transform="translate(-194.154 -297.213)" fill="#ff7f00"/>
      <path id="Path_55921" data-name="Path 55921" d="M579.7,461.16a3.378,3.378,0,1,1-3.365-3.436A3.3,3.3,0,0,1,579.7,461.16Z" transform="translate(-454.47 -403.14)" fill="#ff7f00"/>
      <path id="Path_55922" data-name="Path 55922" d="M191.4,464.531a3.4,3.4,0,1,1,3.4-3.417A3.332,3.332,0,0,1,191.4,464.531Z" transform="translate(-169.685 -403.146)" fill="#ff7f00"/>
    </g>
  </g>
</svg>
