<svg xmlns="http://www.w3.org/2000/svg" width="38.174" height="38.211" viewBox="0 0 38.174 38.211">
  <g id="customer-review" transform="translate(0)">
    <path id="Path_55877" data-name="Path 55877" d="M139.118,218.2a4.6,4.6,0,0,0-.763-.064h-2.441v-1.557a5.228,5.228,0,0,0,2.334-4.352v-2.8a5.219,5.219,0,0,0-.766-2.727l-.956.585a4.1,4.1,0,0,1,.6,2.142v.587l-.147-.272a2.559,2.559,0,0,0-2.253-1.343h-3.418a2.559,2.559,0,0,0-2.253,1.343l-.147.272v-.587a4.109,4.109,0,0,1,7.005-2.914l.79-.795a5.229,5.229,0,0,0-8.916,3.709v2.8a5.228,5.228,0,0,0,2.335,4.352v1.557h-2.441a4.567,4.567,0,0,0-4.562,4.562v4.469h1.121V222.7a3.445,3.445,0,0,1,3.441-3.442h2.484a2.894,2.894,0,0,0,5.7,0h2.484a3.459,3.459,0,0,1,.577.048Zm-4.324.564a1.774,1.774,0,1,1-3.548,0v-1.618a5.229,5.229,0,0,0,3.548,0Zm-1.774-2.428a4.113,4.113,0,0,1-4.105-3.973l1.129-2.088a1.439,1.439,0,0,1,1.267-.755h3.418a1.439,1.439,0,0,1,1.267.755l1.129,2.088A4.113,4.113,0,0,1,133.02,216.339Zm0,0" transform="translate(-113.933 -188.96)" fill="#1877f2"/>
    <path id="Path_55878" data-name="Path 55878" d="M347.708,397.012l-.486,1.01a3.463,3.463,0,0,1,1.951,3.1v4.469h1.121v-4.469A4.589,4.589,0,0,0,347.708,397.012Zm0,0" transform="translate(-321.309 -367.383)" fill="#1877f2"/>
    <path id="Path_55879" data-name="Path 55879" d="M328.32,475.965h1.121v2.689H328.32Zm0,0" transform="translate(-303.817 -440.443)" fill="#1877f2"/>
    <path id="Path_55880" data-name="Path 55880" d="M168.164,475.965h1.121v2.689h-1.121Zm0,0" transform="translate(-155.614 -440.443)" fill="#1877f2"/>
    <path id="Path_55881" data-name="Path 55881" d="M64.929,38.214l-1.3-2.625-1.3,2.625-2.9.421,2.1,2.043-.495,2.885L63.634,42.2l2.591,1.362-.495-2.885,2.1-2.043Zm-.193,3.3-1.1-.58-1.1.58.21-1.228-.892-.87,1.233-.179.551-1.117.551,1.117,1.233.179-.892.87Zm0,0" transform="translate(-55.006 -32.934)" fill="#1877f2"/>
    <path id="Path_55882" data-name="Path 55882" d="M210.069,38.211l-1.3-2.625-1.3,2.625-2.9.421,2.1,2.043-.495,2.885,2.591-1.362,2.591,1.362-.5-2.885,2.1-2.043Zm-.193,3.3-1.1-.58-1.1.58.21-1.228-.892-.87,1.233-.179.551-1.117.551,1.117,1.233.179-.892.87Zm0,0" transform="translate(-189.314 -32.93)" fill="#1877f2"/>
    <path id="Path_55883" data-name="Path 55883" d="M343.907,35.586l-1.3,2.625-2.9.421,2.1,2.043-.495,2.885,2.591-1.362L346.5,43.56l-.5-2.885,2.1-2.043-2.9-.421Zm1.1,5.926-1.1-.58-1.1.58.211-1.228-.892-.87,1.233-.179.551-1.117.551,1.117,1.233.179-.892.87Zm0,0" transform="translate(-314.362 -32.93)" fill="#1877f2"/>
    <path id="Path_55884" data-name="Path 55884" d="M36.12,0h-6.88V1.121h6.88a.935.935,0,0,1,.934.934v9.711a.935.935,0,0,1-.934.934H10.683v3.961L5.071,12.7H2.055a.935.935,0,0,1-.934-.934V6.886H0v4.88A2.057,2.057,0,0,0,2.055,13.82H4.716l7.088,5v-5H36.12a2.057,2.057,0,0,0,2.054-2.054V2.054A2.057,2.057,0,0,0,36.12,0Zm0,0" transform="translate(0)" fill="#1877f2"/>
    <path id="Path_55885" data-name="Path 55885" d="M1.121,2.054a.935.935,0,0,1,.934-.934H28.119V0H2.054A2.057,2.057,0,0,0,0,2.054V5.765H1.121Zm0,0" transform="translate(0 0)" fill="#1877f2"/>
    <path id="Path_55886" data-name="Path 55886" d="M153.148,423.341h1.121a1.2,1.2,0,0,1,1.2-1.2v-1.12a2.324,2.324,0,0,0-2.321,2.321Zm0,0" transform="translate(-141.718 -389.599)" fill="#1877f2"/>
    <path id="Path_55887" data-name="Path 55887" d="M445.735,32.832v-2.8h-2.8v1.12h1.681v1.681Zm0,0" transform="translate(-409.877 -27.79)" fill="#1877f2"/>
    <path id="Path_55888" data-name="Path 55888" d="M30.031,116.613v2.8h2.8v-1.121H31.152v-1.681Zm0,0" transform="translate(-27.79 -107.91)" fill="#1877f2"/>
    <path id="Path_55889" data-name="Path 55889" d="M218.215,478.469h1.12v1.12h-1.12Zm0,0" transform="translate(-201.929 -442.761)" fill="#1877f2"/>
    <path id="Path_55890" data-name="Path 55890" d="M248.242,478.469h1.121v1.12h-1.121Zm0,0" transform="translate(-229.716 -442.761)" fill="#1877f2"/>
    <path id="Path_55891" data-name="Path 55891" d="M278.273,478.469h1.12v1.12h-1.12Zm0,0" transform="translate(-257.505 -442.761)" fill="#1877f2"/>
  </g>
</svg>
