<svg xmlns="http://www.w3.org/2000/svg" width="38" height="38.001" viewBox="0 0 38 38.001">
  <path id="Icon_color" data-name="Icon color" d="M37.136,38a.838.838,0,0,1-.6-.27l-3.457-3.614A5.114,5.114,0,0,0,29.4,32.525H10.374a3.543,3.543,0,0,1-3.459-3.614H27.662a7.085,7.085,0,0,0,6.915-7.228V7.228A3.549,3.549,0,0,1,38,10.842V37.1A.885.885,0,0,1,37.136,38ZM.864,30.719a.886.886,0,0,1-.864-.9V7.228A7.085,7.085,0,0,1,6.915,0H24.2a7.085,7.085,0,0,1,6.915,7.228V18.07A7.085,7.085,0,0,1,24.2,25.3H8.546a5.043,5.043,0,0,0-3.618,1.537L1.469,30.449A.838.838,0,0,1,.864,30.719Z" transform="translate(0 0)" fill="#5d91f4"/>
</svg>
