<svg xmlns="http://www.w3.org/2000/svg" width="23" height="23" viewBox="0 0 23 23">
  <path id="Icon_color" data-name="Icon color" d="M.575,23A.576.576,0,0,1,0,22.426V4.6A4.6,4.6,0,0,1,4.6,0H18.4A4.6,4.6,0,0,1,23,4.6v9.2a4.605,4.605,0,0,1-4.6,4.6H6.834a3.433,3.433,0,0,0-2.406.978L.977,22.828A.569.569,0,0,1,.575,23ZM4.6,2.3A2.3,2.3,0,0,0,2.3,4.6V18.262l.529-.482A5.714,5.714,0,0,1,6.889,16.1H18.4a2.3,2.3,0,0,0,2.3-2.3V4.6a2.3,2.3,0,0,0-2.3-2.3Zm12.075,8.05h-1.15a.576.576,0,0,1-.575-.575V8.625a.576.576,0,0,1,.575-.574h1.15a.576.576,0,0,1,.575.574v1.15A.576.576,0,0,1,16.675,10.35Zm-4.6,0h-1.15a.576.576,0,0,1-.575-.575V8.625a.576.576,0,0,1,.575-.574h1.15a.575.575,0,0,1,.574.574v1.15A.576.576,0,0,1,12.075,10.35Zm-4.6,0H6.325a.576.576,0,0,1-.574-.575V8.625a.575.575,0,0,1,.574-.574h1.15a.576.576,0,0,1,.575.574v1.15A.576.576,0,0,1,7.475,10.35Z" fill="#1877f2"/>
</svg>
