<svg xmlns="http://www.w3.org/2000/svg" width="31.45" height="39.411" viewBox="0 0 31.45 39.411">
  <g id="Group_2335" data-name="Group 2335" transform="translate(-53 -176)">
    <path id="notification" d="M30.716,28.49a15.135,15.135,0,0,1-7.009-9.125l-1.7-6.354A11.08,11.08,0,0,0,11.684,4.786l-.636-2.373A3.268,3.268,0,0,0,4.735,4.1L5.37,6.476A11.112,11.112,0,0,0,.541,18.76l1.7,6.354a15.038,15.038,0,0,1,.514,3.9A15.065,15.065,0,0,1,.748,36.519,1.759,1.759,0,0,0,.873,38.5a1.781,1.781,0,0,0,1.883.642l9.4-2.517a4.57,4.57,0,0,0,8.739-2.34l9.4-2.517a1.785,1.785,0,0,0,1.322-1.741,1.765,1.765,0,0,0-.9-1.541ZM6.193,2.278a1.963,1.963,0,0,1,3.6.473l.552,2.063c-.062.005-.123.018-.185.024q-.309.031-.613.079c-.108.017-.216.034-.323.055q-.339.065-.671.148c-.049.012-.1.019-.147.033s-.079.026-.119.037q-.374.1-.738.232c-.065.023-.127.046-.19.07q-.378.141-.745.309c-.019.008-.039.015-.058.024L6,3.766a1.943,1.943,0,0,1,.193-1.488ZM19.614,34.633a3.27,3.27,0,0,1-6.187,1.656Zm10.332-4.123L2.415,37.884a.471.471,0,0,1-.507-.174.466.466,0,0,1-.033-.535A16.374,16.374,0,0,0,4.061,29.01,16.287,16.287,0,0,0,3.5,24.776L1.8,18.422A9.812,9.812,0,0,1,6.434,7.35l.011-.005a9.77,9.77,0,0,1,1.722-.74c.188-.062.371-.137.563-.187A9.957,9.957,0,0,1,10.75,6.1c.144-.008.289-.017.433-.018h.1a9.791,9.791,0,0,1,9.458,7.268l1.7,6.355a16.452,16.452,0,0,0,7.622,9.917.458.458,0,0,1,.242.408.479.479,0,0,1-.359.48Zm0,0" transform="translate(52.837 176.01)" fill="#1877f2"/>
    <g id="Ellipse_5" data-name="Ellipse 5" transform="translate(70 182)" fill="red" stroke="#fafbfc" stroke-width="1">
      <circle cx="4.5" cy="4.5" r="4.5" stroke="none"/>
      <circle cx="4.5" cy="4.5" r="4" fill="none"/>
    </g>
  </g>
</svg>
