<svg xmlns="http://www.w3.org/2000/svg" width="23" height="23" viewBox="0 0 23 23">
  <path id="Icon_color" data-name="Icon color" d="M11.5,23A11.5,11.5,0,0,1,3.369,3.369,11.5,11.5,0,1,1,19.632,19.632,11.422,11.422,0,0,1,11.5,23Zm0-20.7a9.2,9.2,0,1,0,9.2,9.2A9.21,9.21,0,0,0,11.5,2.3Zm.575,13.8h-1.15a.576.576,0,0,1-.575-.575v-3.45a.576.576,0,0,1,.575-.575h1.15a.576.576,0,0,1,.575.575v3.45A.576.576,0,0,1,12.075,16.1Zm0-6.9h-1.15a.576.576,0,0,1-.575-.575V7.475a.576.576,0,0,1,.575-.575h1.15a.576.576,0,0,1,.575.575V8.625A.576.576,0,0,1,12.075,9.2Z" transform="translate(0 0)" fill="#1877f2"/>
</svg>
